<svg xmlns="http://www.w3.org/2000/svg" xmlns:xlink="http://www.w3.org/1999/xlink" xml:space="preserve" viewBox="0 0 1024 1024"><defs><path id="a" d="M514.17 513.25 512.72 1024 68.24 767.38l1.44-510.75z"/></defs><clipPath id="b"><use xlink:href="#a" overflow="visible"/></clipPath><g clip-path="url(#b)"><path fill="#475369" d="m131.75 702.14.29-102.41 254.43 146.9-.29 102.41-254.43-146.9m319.21-226.08L69.29 255.71 69 358.12l318.05 183.62-.29 102.44L68.71 460.56l-.87 307.29L449.5 988.2l.58-204.85 63.6 36.72.29-102.44-63.6-36.72.59-204.85"/></g><defs><path id="c" d="m955.76 256.62-1.44 510.75L512.72 1024l1.45-510.75z"/></defs><clipPath id="d"><use xlink:href="#c" overflow="visible"/></clipPath><g clip-path="url(#d)"><path fill="#EF8151" d="m639.59 644.19.29-102.44 252.8-146.91-.29 102.44-252.8 146.91m316.56-388.48L576.98 476.06l-.58 204.85-63.2 36.73-.29 102.44 63.2-36.73-.58 204.85L954.7 767.86l.29-102.44-315.98 183.62.29-102.41L955.28 563l.87-307.29"/></g><defs><path id="e" d="M955.76 256.62 514.17 513.25 69.68 256.63 511.28 0z"/></defs><clipPath id="f"><use xlink:href="#e" overflow="visible"/></clipPath><g clip-path="url(#f)"><path fill="#2A3142" d="m779.69 359.72-445.8-257.38L68.37 256.63l89.27 51.54 176.8-102.74 356.53 205.84 88.72-51.55m177.39-103.09L511.28-.75l-88.69 51.54 445.8 257.38 88.69-51.54"/></g></svg>